<mxfile host="app.diagrams.net" modified="2022-12-17T00:40:31.188Z" agent="5.0 (Macintosh; Intel Mac OS X 10_15_7) AppleWebKit/605.1.15 (KHTML, like Gecko) Version/15.6 Safari/605.1.15" etag="FYVkB6mMgwML2B5sqsbJ" version="20.7.4" type="github">
  <diagram id="tBJtGItLAEdfWHWXXBW2" name="Page-1">
    <mxGraphModel dx="2071" dy="1919" grid="1" gridSize="10" guides="1" tooltips="1" connect="1" arrows="1" fold="1" page="1" pageScale="1" pageWidth="827" pageHeight="1169" math="0" shadow="0">
      <root>
        <mxCell id="0" />
        <mxCell id="1" parent="0" />
        <mxCell id="6NRoLecgiorz-ysppyv6-4" style="edgeStyle=orthogonalEdgeStyle;rounded=0;orthogonalLoop=1;jettySize=auto;html=1;entryX=0;entryY=0.5;entryDx=0;entryDy=0;" parent="1" source="6NRoLecgiorz-ysppyv6-1" target="6NRoLecgiorz-ysppyv6-2" edge="1">
          <mxGeometry relative="1" as="geometry" />
        </mxCell>
        <mxCell id="6NRoLecgiorz-ysppyv6-1" value="Datasource A" style="rounded=0;whiteSpace=wrap;html=1;" parent="1" vertex="1">
          <mxGeometry x="140" y="160" width="120" height="60" as="geometry" />
        </mxCell>
        <mxCell id="6NRoLecgiorz-ysppyv6-2" value="Datasource A" style="rounded=0;whiteSpace=wrap;html=1;" parent="1" vertex="1">
          <mxGeometry x="460" y="160" width="120" height="60" as="geometry" />
        </mxCell>
        <mxCell id="6NRoLecgiorz-ysppyv6-5" value="Data" style="text;html=1;align=center;verticalAlign=middle;resizable=0;points=[];autosize=1;strokeColor=none;fillColor=none;" parent="1" vertex="1">
          <mxGeometry x="330" y="160" width="50" height="30" as="geometry" />
        </mxCell>
        <mxCell id="6NRoLecgiorz-ysppyv6-13" style="edgeStyle=orthogonalEdgeStyle;rounded=0;orthogonalLoop=1;jettySize=auto;html=1;entryX=0.75;entryY=0;entryDx=0;entryDy=0;" parent="1" source="6NRoLecgiorz-ysppyv6-8" target="6NRoLecgiorz-ysppyv6-11" edge="1">
          <mxGeometry relative="1" as="geometry" />
        </mxCell>
        <mxCell id="6NRoLecgiorz-ysppyv6-8" value="Scheduler" style="shape=hexagon;perimeter=hexagonPerimeter2;whiteSpace=wrap;html=1;fixedSize=1;" parent="1" vertex="1">
          <mxGeometry x="20" y="-20" width="120" height="80" as="geometry" />
        </mxCell>
        <mxCell id="6NRoLecgiorz-ysppyv6-12" style="edgeStyle=orthogonalEdgeStyle;rounded=0;orthogonalLoop=1;jettySize=auto;html=1;entryX=0.25;entryY=0;entryDx=0;entryDy=0;" parent="1" source="6NRoLecgiorz-ysppyv6-9" target="6NRoLecgiorz-ysppyv6-11" edge="1">
          <mxGeometry relative="1" as="geometry" />
        </mxCell>
        <mxCell id="6NRoLecgiorz-ysppyv6-9" value="Interface" style="shape=hexagon;perimeter=hexagonPerimeter2;whiteSpace=wrap;html=1;fixedSize=1;" parent="1" vertex="1">
          <mxGeometry x="-190" y="-20" width="120" height="80" as="geometry" />
        </mxCell>
        <mxCell id="6NRoLecgiorz-ysppyv6-14" style="edgeStyle=orthogonalEdgeStyle;rounded=0;orthogonalLoop=1;jettySize=auto;html=1;entryX=0;entryY=0.5;entryDx=0;entryDy=0;" parent="1" source="6NRoLecgiorz-ysppyv6-11" target="6NRoLecgiorz-ysppyv6-1" edge="1">
          <mxGeometry relative="1" as="geometry" />
        </mxCell>
        <mxCell id="6NRoLecgiorz-ysppyv6-11" value="Start" style="rounded=0;whiteSpace=wrap;html=1;" parent="1" vertex="1">
          <mxGeometry x="-90" y="160" width="120" height="60" as="geometry" />
        </mxCell>
        <mxCell id="6NRoLecgiorz-ysppyv6-15" value="Trigger" style="text;html=1;align=center;verticalAlign=middle;resizable=0;points=[];autosize=1;strokeColor=none;fillColor=none;" parent="1" vertex="1">
          <mxGeometry x="-60" y="80" width="60" height="30" as="geometry" />
        </mxCell>
        <mxCell id="6NRoLecgiorz-ysppyv6-16" value="&lt;font style=&quot;font-size: 14px;&quot;&gt;&lt;b&gt;Company entry&lt;/b&gt;&lt;/font&gt;" style="text;html=1;strokeColor=none;fillColor=none;align=center;verticalAlign=middle;whiteSpace=wrap;rounded=0;" parent="1" vertex="1">
          <mxGeometry x="-260" y="400" width="130" height="30" as="geometry" />
        </mxCell>
        <mxCell id="6NRoLecgiorz-ysppyv6-17" value="&lt;font style=&quot;font-size: 14px;&quot;&gt;&lt;b&gt;Core integration&lt;/b&gt;&lt;/font&gt;" style="text;html=1;strokeColor=none;fillColor=none;align=center;verticalAlign=middle;whiteSpace=wrap;rounded=0;" parent="1" vertex="1">
          <mxGeometry x="-250" y="-100" width="130" height="30" as="geometry" />
        </mxCell>
        <mxCell id="6NRoLecgiorz-ysppyv6-23" style="edgeStyle=orthogonalEdgeStyle;rounded=0;orthogonalLoop=1;jettySize=auto;html=1;entryX=0;entryY=0.5;entryDx=0;entryDy=0;fontSize=14;" parent="1" source="6NRoLecgiorz-ysppyv6-18" target="6NRoLecgiorz-ysppyv6-21" edge="1">
          <mxGeometry relative="1" as="geometry" />
        </mxCell>
        <mxCell id="6NRoLecgiorz-ysppyv6-18" value="User wants create company" style="rounded=0;whiteSpace=wrap;html=1;fontSize=14;fillColor=#f5f5f5;fontColor=#333333;strokeColor=#666666;" parent="1" vertex="1">
          <mxGeometry x="-240" y="480" width="150" height="60" as="geometry" />
        </mxCell>
        <mxCell id="6NRoLecgiorz-ysppyv6-24" style="edgeStyle=orthogonalEdgeStyle;rounded=0;orthogonalLoop=1;jettySize=auto;html=1;entryX=0;entryY=0.5;entryDx=0;entryDy=0;fontSize=14;" parent="1" source="6NRoLecgiorz-ysppyv6-21" target="6NRoLecgiorz-ysppyv6-22" edge="1">
          <mxGeometry relative="1" as="geometry" />
        </mxCell>
        <mxCell id="6NRoLecgiorz-ysppyv6-21" value="Choose an identifier name" style="rounded=0;whiteSpace=wrap;html=1;fontSize=14;fillColor=#d5e8d4;strokeColor=#82b366;" parent="1" vertex="1">
          <mxGeometry x="30" y="480" width="160" height="60" as="geometry" />
        </mxCell>
        <mxCell id="6NRoLecgiorz-ysppyv6-26" style="edgeStyle=orthogonalEdgeStyle;rounded=0;orthogonalLoop=1;jettySize=auto;html=1;fontSize=14;" parent="1" source="6NRoLecgiorz-ysppyv6-22" target="6NRoLecgiorz-ysppyv6-25" edge="1">
          <mxGeometry relative="1" as="geometry" />
        </mxCell>
        <mxCell id="6NRoLecgiorz-ysppyv6-22" value="Choice workers" style="rounded=0;whiteSpace=wrap;html=1;fontSize=14;fillColor=#dae8fc;strokeColor=#6c8ebf;" parent="1" vertex="1">
          <mxGeometry x="330" y="480" width="120" height="60" as="geometry" />
        </mxCell>
        <mxCell id="6NRoLecgiorz-ysppyv6-27" style="edgeStyle=orthogonalEdgeStyle;rounded=0;orthogonalLoop=1;jettySize=auto;html=1;fontSize=14;" parent="1" source="6NRoLecgiorz-ysppyv6-25" edge="1">
          <mxGeometry relative="1" as="geometry">
            <mxPoint x="630" y="705" as="targetPoint" />
          </mxGeometry>
        </mxCell>
        <mxCell id="6NRoLecgiorz-ysppyv6-29" style="edgeStyle=orthogonalEdgeStyle;rounded=0;orthogonalLoop=1;jettySize=auto;html=1;fontSize=14;" parent="1" source="6NRoLecgiorz-ysppyv6-25" edge="1">
          <mxGeometry relative="1" as="geometry">
            <mxPoint x="390" y="900" as="targetPoint" />
          </mxGeometry>
        </mxCell>
        <mxCell id="6NRoLecgiorz-ysppyv6-25" value="Cloud or on-premises?" style="rhombus;whiteSpace=wrap;html=1;fontSize=14;fillColor=#dae8fc;strokeColor=#6c8ebf;" parent="1" vertex="1">
          <mxGeometry x="330" y="650" width="120" height="110" as="geometry" />
        </mxCell>
        <mxCell id="6NRoLecgiorz-ysppyv6-28" value="Cloud" style="text;html=1;align=center;verticalAlign=middle;resizable=0;points=[];autosize=1;strokeColor=none;fillColor=none;fontSize=14;" parent="1" vertex="1">
          <mxGeometry x="490" y="675" width="60" height="30" as="geometry" />
        </mxCell>
        <mxCell id="6NRoLecgiorz-ysppyv6-30" value="On-premise" style="text;html=1;align=center;verticalAlign=middle;resizable=0;points=[];autosize=1;strokeColor=none;fillColor=none;fontSize=14;" parent="1" vertex="1">
          <mxGeometry x="400" y="810" width="100" height="30" as="geometry" />
        </mxCell>
        <mxCell id="g5JYePuPsJwM0HJEv5b4-2" style="edgeStyle=orthogonalEdgeStyle;rounded=0;orthogonalLoop=1;jettySize=auto;html=1;fontSize=14;" edge="1" parent="1" source="6NRoLecgiorz-ysppyv6-31">
          <mxGeometry relative="1" as="geometry">
            <mxPoint x="910" y="705" as="targetPoint" />
          </mxGeometry>
        </mxCell>
        <mxCell id="6NRoLecgiorz-ysppyv6-31" value="Choice cloud plans" style="rounded=0;whiteSpace=wrap;html=1;fontSize=14;fillColor=#dae8fc;strokeColor=#6c8ebf;" parent="1" vertex="1">
          <mxGeometry x="630" y="675" width="120" height="60" as="geometry" />
        </mxCell>
        <mxCell id="g5JYePuPsJwM0HJEv5b4-5" style="edgeStyle=orthogonalEdgeStyle;rounded=0;orthogonalLoop=1;jettySize=auto;html=1;fontSize=14;" edge="1" parent="1" source="g5JYePuPsJwM0HJEv5b4-3" target="g5JYePuPsJwM0HJEv5b4-4">
          <mxGeometry relative="1" as="geometry" />
        </mxCell>
        <mxCell id="g5JYePuPsJwM0HJEv5b4-3" value="Create workers instances" style="rounded=0;whiteSpace=wrap;html=1;fontSize=14;fillColor=#dae8fc;strokeColor=#6c8ebf;" vertex="1" parent="1">
          <mxGeometry x="910" y="675" width="120" height="60" as="geometry" />
        </mxCell>
        <mxCell id="g5JYePuPsJwM0HJEv5b4-4" value="Redirect to company home" style="rounded=0;whiteSpace=wrap;html=1;fontSize=14;fillColor=#dae8fc;strokeColor=#6c8ebf;" vertex="1" parent="1">
          <mxGeometry x="1230" y="750" width="120" height="60" as="geometry" />
        </mxCell>
        <mxCell id="g5JYePuPsJwM0HJEv5b4-7" style="edgeStyle=orthogonalEdgeStyle;rounded=0;orthogonalLoop=1;jettySize=auto;html=1;fontSize=14;entryX=0;entryY=0.5;entryDx=0;entryDy=0;" edge="1" parent="1" source="g5JYePuPsJwM0HJEv5b4-6" target="g5JYePuPsJwM0HJEv5b4-8">
          <mxGeometry relative="1" as="geometry">
            <mxPoint x="620" y="930" as="targetPoint" />
          </mxGeometry>
        </mxCell>
        <mxCell id="g5JYePuPsJwM0HJEv5b4-6" value="Worker identifier" style="rounded=0;whiteSpace=wrap;html=1;fontSize=14;fillColor=#dae8fc;strokeColor=#6c8ebf;" vertex="1" parent="1">
          <mxGeometry x="330" y="900" width="120" height="60" as="geometry" />
        </mxCell>
        <mxCell id="g5JYePuPsJwM0HJEv5b4-10" value="" style="edgeStyle=orthogonalEdgeStyle;rounded=0;orthogonalLoop=1;jettySize=auto;html=1;fontSize=14;" edge="1" parent="1" source="g5JYePuPsJwM0HJEv5b4-8" target="g5JYePuPsJwM0HJEv5b4-9">
          <mxGeometry relative="1" as="geometry" />
        </mxCell>
        <mxCell id="g5JYePuPsJwM0HJEv5b4-8" value="Select configuration details" style="rounded=0;whiteSpace=wrap;html=1;fontSize=14;fillColor=#dae8fc;strokeColor=#6c8ebf;" vertex="1" parent="1">
          <mxGeometry x="620" y="900" width="120" height="60" as="geometry" />
        </mxCell>
        <mxCell id="g5JYePuPsJwM0HJEv5b4-12" value="" style="edgeStyle=orthogonalEdgeStyle;rounded=0;orthogonalLoop=1;jettySize=auto;html=1;fontSize=14;" edge="1" parent="1" source="g5JYePuPsJwM0HJEv5b4-9" target="g5JYePuPsJwM0HJEv5b4-11">
          <mxGeometry relative="1" as="geometry" />
        </mxCell>
        <mxCell id="g5JYePuPsJwM0HJEv5b4-9" value="Generate button to download integrator.conf" style="whiteSpace=wrap;html=1;fontSize=14;rounded=0;fillColor=#dae8fc;strokeColor=#6c8ebf;" vertex="1" parent="1">
          <mxGeometry x="890" y="900" width="120" height="60" as="geometry" />
        </mxCell>
        <mxCell id="g5JYePuPsJwM0HJEv5b4-15" style="edgeStyle=orthogonalEdgeStyle;rounded=0;orthogonalLoop=1;jettySize=auto;html=1;entryX=0.5;entryY=0;entryDx=0;entryDy=0;fontSize=14;" edge="1" parent="1" source="g5JYePuPsJwM0HJEv5b4-11" target="g5JYePuPsJwM0HJEv5b4-14">
          <mxGeometry relative="1" as="geometry" />
        </mxCell>
        <mxCell id="g5JYePuPsJwM0HJEv5b4-16" style="edgeStyle=orthogonalEdgeStyle;rounded=0;orthogonalLoop=1;jettySize=auto;html=1;entryX=0.5;entryY=0;entryDx=0;entryDy=0;fontSize=14;" edge="1" parent="1" target="g5JYePuPsJwM0HJEv5b4-13">
          <mxGeometry relative="1" as="geometry">
            <mxPoint x="1200" y="1010" as="sourcePoint" />
          </mxGeometry>
        </mxCell>
        <mxCell id="g5JYePuPsJwM0HJEv5b4-11" value="Select OS (Docker, Linux, Windows)" style="whiteSpace=wrap;html=1;fontSize=14;rounded=0;fillColor=#dae8fc;strokeColor=#6c8ebf;" vertex="1" parent="1">
          <mxGeometry x="1140" y="900" width="120" height="60" as="geometry" />
        </mxCell>
        <mxCell id="g5JYePuPsJwM0HJEv5b4-13" value="Show docs installation guide" style="whiteSpace=wrap;html=1;fontSize=14;rounded=0;fillColor=#dae8fc;strokeColor=#6c8ebf;" vertex="1" parent="1">
          <mxGeometry x="1280" y="1070" width="120" height="60" as="geometry" />
        </mxCell>
        <mxCell id="g5JYePuPsJwM0HJEv5b4-14" value="Download worker client&amp;nbsp;" style="whiteSpace=wrap;html=1;fontSize=14;rounded=0;fillColor=#dae8fc;strokeColor=#6c8ebf;" vertex="1" parent="1">
          <mxGeometry x="1060" y="1070" width="120" height="60" as="geometry" />
        </mxCell>
      </root>
    </mxGraphModel>
  </diagram>
</mxfile>
